<mxfile host="65bd71144e" pages="2">
    <diagram id="ISqQ7VeZwMy37rmmiMsw" name="Page-1">
        <mxGraphModel dx="1642" dy="950" grid="1" gridSize="10" guides="1" tooltips="1" connect="1" arrows="1" fold="1" page="1" pageScale="1" pageWidth="827" pageHeight="1169" math="0" shadow="0">
            <root>
                <mxCell id="xbMBXM6EiJZpktrKFTDP-0"/>
                <mxCell id="xbMBXM6EiJZpktrKFTDP-1" parent="xbMBXM6EiJZpktrKFTDP-0"/>
                <mxCell id="TZSNq57wIdiqpUI2tv58-0" value="users" style="swimlane;" vertex="1" parent="xbMBXM6EiJZpktrKFTDP-1">
                    <mxGeometry x="80" y="50" width="240" height="200" as="geometry"/>
                </mxCell>
                <mxCell id="TZSNq57wIdiqpUI2tv58-5" value="user_id" style="text;html=1;align=center;verticalAlign=middle;resizable=0;points=[];autosize=1;strokeColor=none;fillColor=none;" vertex="1" parent="TZSNq57wIdiqpUI2tv58-0">
                    <mxGeometry x="95" y="30" width="50" height="20" as="geometry"/>
                </mxCell>
                <mxCell id="TZSNq57wIdiqpUI2tv58-9" value="username" style="whiteSpace=wrap;html=1;" vertex="1" parent="TZSNq57wIdiqpUI2tv58-0">
                    <mxGeometry y="50" width="240" height="60" as="geometry"/>
                </mxCell>
                <mxCell id="TZSNq57wIdiqpUI2tv58-11" value="" style="edgeStyle=none;html=1;" edge="1" parent="TZSNq57wIdiqpUI2tv58-0" source="TZSNq57wIdiqpUI2tv58-10" target="TZSNq57wIdiqpUI2tv58-9">
                    <mxGeometry relative="1" as="geometry"/>
                </mxCell>
                <mxCell id="TZSNq57wIdiqpUI2tv58-10" value="password" style="text;html=1;align=center;verticalAlign=middle;resizable=0;points=[];autosize=1;strokeColor=none;fillColor=none;" vertex="1" parent="TZSNq57wIdiqpUI2tv58-0">
                    <mxGeometry x="90" y="130" width="70" height="20" as="geometry"/>
                </mxCell>
                <mxCell id="TZSNq57wIdiqpUI2tv58-21" value="" style="edgeStyle=isometricEdgeStyle;endArrow=none;html=1;elbow=vertical;exitX=0;exitY=0.5;exitDx=0;exitDy=0;" edge="1" parent="TZSNq57wIdiqpUI2tv58-0" source="TZSNq57wIdiqpUI2tv58-19">
                    <mxGeometry width="50" height="100" relative="1" as="geometry">
                        <mxPoint x="190.79999999999995" y="140" as="sourcePoint"/>
                        <mxPoint x="240.79999999999995" y="40" as="targetPoint"/>
                    </mxGeometry>
                </mxCell>
                <mxCell id="TZSNq57wIdiqpUI2tv58-3" value="" style="endArrow=none;html=1;entryX=1;entryY=0.25;entryDx=0;entryDy=0;exitX=0;exitY=0.25;exitDx=0;exitDy=0;" edge="1" parent="xbMBXM6EiJZpktrKFTDP-1" source="TZSNq57wIdiqpUI2tv58-0" target="TZSNq57wIdiqpUI2tv58-0">
                    <mxGeometry width="50" height="50" relative="1" as="geometry">
                        <mxPoint x="160" y="110" as="sourcePoint"/>
                        <mxPoint x="240" y="110" as="targetPoint"/>
                    </mxGeometry>
                </mxCell>
                <mxCell id="TZSNq57wIdiqpUI2tv58-12" value="todo" style="swimlane;" vertex="1" parent="xbMBXM6EiJZpktrKFTDP-1">
                    <mxGeometry x="414" y="40" width="240" height="200" as="geometry"/>
                </mxCell>
                <mxCell id="TZSNq57wIdiqpUI2tv58-17" value="" style="edgeStyle=none;html=1;" edge="1" parent="TZSNq57wIdiqpUI2tv58-12" source="TZSNq57wIdiqpUI2tv58-13" target="TZSNq57wIdiqpUI2tv58-16">
                    <mxGeometry relative="1" as="geometry"/>
                </mxCell>
                <mxCell id="TZSNq57wIdiqpUI2tv58-13" value="todo_idf" style="text;html=1;align=center;verticalAlign=middle;resizable=0;points=[];autosize=1;strokeColor=none;fillColor=none;" vertex="1" parent="TZSNq57wIdiqpUI2tv58-12">
                    <mxGeometry x="90" y="30" width="60" height="20" as="geometry"/>
                </mxCell>
                <mxCell id="TZSNq57wIdiqpUI2tv58-14" value="title" style="whiteSpace=wrap;html=1;" vertex="1" parent="TZSNq57wIdiqpUI2tv58-12">
                    <mxGeometry y="50" width="240" height="60" as="geometry"/>
                </mxCell>
                <mxCell id="TZSNq57wIdiqpUI2tv58-15" value="" style="edgeStyle=none;html=1;" edge="1" parent="TZSNq57wIdiqpUI2tv58-12" source="TZSNq57wIdiqpUI2tv58-16" target="TZSNq57wIdiqpUI2tv58-14">
                    <mxGeometry relative="1" as="geometry"/>
                </mxCell>
                <mxCell id="TZSNq57wIdiqpUI2tv58-16" value="description" style="text;html=1;align=center;verticalAlign=middle;resizable=0;points=[];autosize=1;strokeColor=none;fillColor=none;" vertex="1" parent="TZSNq57wIdiqpUI2tv58-12">
                    <mxGeometry x="90" y="130" width="70" height="20" as="geometry"/>
                </mxCell>
                <mxCell id="TZSNq57wIdiqpUI2tv58-18" value="is_completed" style="whiteSpace=wrap;html=1;" vertex="1" parent="xbMBXM6EiJZpktrKFTDP-1">
                    <mxGeometry x="420" y="240" width="230" height="60" as="geometry"/>
                </mxCell>
                <mxCell id="TZSNq57wIdiqpUI2tv58-19" value="user_id" style="whiteSpace=wrap;html=1;" vertex="1" parent="xbMBXM6EiJZpktrKFTDP-1">
                    <mxGeometry x="420" y="300" width="230" height="60" as="geometry"/>
                </mxCell>
            </root>
        </mxGraphModel>
    </diagram>
</mxfile>